<?xml version="1.0" standalone="no"?>
<!DOCTYPE svg PUBLIC "-//W3C//DTD SVG 20010904//EN" "http://www.w3.org/TR/2001/REC-SVG-20010904/DTD/svg10.dtd">
<!-- Created using Krita: https://krita.org -->
<svg xmlns="http://www.w3.org/2000/svg" 
    xmlns:xlink="http://www.w3.org/1999/xlink"
    xmlns:krita="http://krita.org/namespaces/svg/krita"
    xmlns:sodipodi="http://sodipodi.sourceforge.net/DTD/sodipodi-0.dtd"
    width="120.24pt"
    height="120.24pt"
    viewBox="0 0 120.24 120.24">
<defs/>
<ellipse id="shape0" transform="matrix(0.726566857086936 0.321432384021384 -0.321432384021384 0.726566857086936 28.2990052435422 36.7967108504892)" rx="48.36" ry="11.451282028" cx="48.36" cy="11.451282028" fill="#8f9bbc" fill-rule="evenodd" stroke="#000000" stroke-opacity="0" stroke-width="0" stroke-linecap="square" stroke-linejoin="bevel"/><ellipse id="shape1" transform="matrix(0.79449240105052 0 0 0.79449240105052 36.5875671550578 37.3985654318748)" rx="29.16" ry="29.28" cx="29.16" cy="29.28" fill="#8f9bbc" fill-rule="evenodd" stroke="#000000" stroke-opacity="0" stroke-width="0" stroke-linecap="square" stroke-linejoin="bevel"/><circle id="shape2" transform="matrix(0.79449240105052 0 0 0.79449240105052 40.4011306805643 41.307468044769)" r="24.36" cx="24.36" cy="24.36" fill="#f2f2f2" fill-rule="evenodd" stroke="#000000" stroke-opacity="0" stroke-width="0" stroke-linecap="square" stroke-linejoin="bevel"/><ellipse id="shape01" transform="matrix(0.794492368600519 0 0 0.79449241186052 54.6521443309424 43.4840120761076)" rx="6.4227441827" ry="6.4491752287" cx="6.4227441827" cy="6.4491752287" fill="#8f9bbc" fill-rule="evenodd" stroke="#000000" stroke-opacity="0" stroke-width="0" stroke-linecap="square" stroke-linejoin="bevel"/><path id="shape011" transform="matrix(0.79449240105052 0 0 0.79449240105052 33.6088780972168 42.26633084884)" fill="#ffffff" stroke="#8f9bbc" stroke-width="3.6" stroke-linecap="square" stroke-linejoin="miter" stroke-miterlimit="2" d="M0 3.49115C7.94694 4.08134 13.6394 3.22745 19.1081 0"/><path id="shape02" transform="matrix(-0.515882816280748 -0.604221050989651 -0.60422104167965 0.515882808320748 90.53725707304 67.4597854280334)" fill="#ffffff" stroke="#8f9bbc" stroke-width="3.6" stroke-linecap="square" stroke-linejoin="miter" stroke-miterlimit="2" d="M0 3.49115C7.72409 4.08134 13.2569 3.22745 18.5723 0"/><path id="shape3" transform="matrix(0.79449240105052 0 0 0.79449240105052 32.4747882399194 49.0299890231716)" fill="none" stroke="#8f9bbc" stroke-width="9.6" stroke-linecap="square" stroke-linejoin="miter" stroke-miterlimit="2" d="M0 0C18.1533 18.6631 41.2464 29.3397 69.6045 31.5046"/><circle id="shape021" transform="matrix(1.00000000427278 0 0 1.00000004183278 68.8987190891627 25.1996048124118)" r="5.4929930051" cx="5.4929930051" cy="5.4929930051" fill="#8f9bbc" fill-rule="evenodd" stroke="#000000" stroke-opacity="0" stroke-width="0" stroke-linecap="square" stroke-linejoin="bevel"/><circle id="shape03" transform="matrix(1.00000003733278 0 0 1.00000001422278 76.1609460742098 14.8040866230302)" r="3.8334923875" cx="3.8334923875" cy="3.8334923875" fill="#8f9bbc" fill-rule="evenodd" stroke="#000000" stroke-opacity="0" stroke-width="0" stroke-linecap="square" stroke-linejoin="bevel"/><circle id="shape0111" transform="matrix(1.00000002727278 0 0 0.999999995972775 81.2498214860316 6.21501825373684)" r="3.0600958199" cx="3.0600958199" cy="3.0600958199" fill="#8f9bbc" fill-rule="evenodd" stroke="#000000" stroke-opacity="0" stroke-width="0" stroke-linecap="square" stroke-linejoin="bevel"/><circle id="shape0211" transform="matrix(-0.999999973012774 0 0 -1.00000003417278 50.4566578498651 96.9330558713005)" r="5.4929930051" cx="5.4929930051" cy="5.4929930051" fill="#8f9bbc" fill-rule="evenodd" stroke="#000000" stroke-opacity="0" stroke-width="0" stroke-linecap="square" stroke-linejoin="bevel"/><circle id="shape031" transform="matrix(-1.00000000607278 0 0 -1.00000000657278 43.194431091818 107.328573983682)" r="3.8334923875" cx="3.8334923875" cy="3.8334923875" fill="#8f9bbc" fill-rule="evenodd" stroke="#000000" stroke-opacity="0" stroke-width="0" stroke-linecap="square" stroke-linejoin="bevel"/><circle id="shape012" transform="matrix(-0.999999996012775 0 0 -0.999999988322775 38.1055558389962 115.917642288876)" r="3.0600958199" cx="3.0600958199" cy="3.0600958199" fill="#8f9bbc" fill-rule="evenodd" stroke="#000000" stroke-opacity="0" stroke-width="0" stroke-linecap="square" stroke-linejoin="bevel"/>
</svg>
